<?xml version="1.0" encoding="UTF-8"?>
<svg id="gestione-strutture-glifo" xmlns="http://www.w3.org/2000/svg" version="1.1" viewBox="0 0 250.98 136.38">
  <path fill="currentColor" d="M169.66,95.49c.58,23.62,26.49,28.64,45.4,22.52,20.24-6.54,20.84-28.37,2.8-37.53-19.65-9.98-65.99-10.93-67.42-40.27-.18-3.73,5.23-2.33,8.2-2.28,13.9.23,9.2,3.62,16.18,10.37,17.18,16.61,67.73,11.79,74.95,41.56,14.21,58.58-102.12,63.34-102.25,5.62h22.13Z"/>
  <path fill="currentColor" d="M129.82,67.49v66.33h-17.7v-33.9c-2.7-.36-4.28,1.9-6.33,3.25-5.84,3.85-39.03,30.65-41.61,30.65h-25.82l69.33-53.07h-42.78v-13.27h64.91Z"/>
  <path fill="currentColor" d="M128.35,43.9h-22.13C87.3-.68,18.63,18.84,19.17,66l-19.17.02C1.3,19.02,33.03-.59,77.52,2.56c25.4,1.8,46.08,15.25,50.83,41.34Z"/>
  <path fill="currentColor" d="M250.79,42.43h-20.65c.11-15.37-13.99-23.94-27.91-25.17l-1.6-14.63c24.86-2.37,50.13,13.03,50.16,39.8Z"/>
</svg>